HIERARCHY
ROOT Hips
{
	OFFSET -3.958830 18.904000 13.208200
	CHANNELS 6 Xposition Yposition Zposition Zrotation Yrotation Xrotation 
	JOINT LHipJoint
	{
		OFFSET 0.000000 0.000000 0.000000
		CHANNELS 3 Zrotation Yrotation Xrotation
		JOINT LeftUpLeg
		{
			OFFSET 1.800000 -1.400000 0.085000
			CHANNELS 3 Zrotation Yrotation Xrotation
			JOINT LeftLeg
			{
				OFFSET 2.215000 -6.000000 0.000000
				CHANNELS 3 Zrotation Yrotation Xrotation
				JOINT LeftFoot
				{
					OFFSET 2.500000 -6.900000 0.000000
					CHANNELS 3 Zrotation Yrotation Xrotation
					JOINT LeftToeBase
					{
						OFFSET 0.200000 -0.500000 1.950000
						CHANNELS 3 Zrotation Yrotation Xrotation
						End Site
						{
							OFFSET 0.000000 0.000000 0.000000
						}
					}
				}
			}
		}
	}
	JOINT RHipJoint
	{
		OFFSET 0.000000 0.000000 0.000000
		CHANNELS 3 Zrotation Yrotation Xrotation
		JOINT RightUpLeg
		{
			OFFSET -1.800000 -1.400000 0.085000
			CHANNELS 3 Zrotation Yrotation Xrotation
			JOINT RightLeg
			{
				OFFSET -2.215000 -6.000000 0.000000
				CHANNELS 3 Zrotation Yrotation Xrotation
				JOINT RightFoot
				{
					OFFSET -2.500000 -6.900000 0.000000
					CHANNELS 3 Zrotation Yrotation Xrotation
					JOINT RightToeBase
					{
						OFFSET -0.200000 -0.500000 1.950000
						CHANNELS 3 Zrotation Yrotation Xrotation
						End Site
						{
							OFFSET 0.000000 0.000000 0.000000
						}
					}
				}
			}
		}
	}
	JOINT LowerBack
	{
		OFFSET 0.000000 0.000000 0.000000
		CHANNELS 3 Zrotation Yrotation Xrotation
		JOINT Spine
		{
			OFFSET -0.087000 1.940000 -0.288900
			CHANNELS 3 Zrotation Yrotation Xrotation
			JOINT Spine1
			{
				OFFSET 0.000000 1.950000 0.060000
				CHANNELS 3 Zrotation Yrotation Xrotation
				JOINT Neck
				{
					OFFSET 0.000000 0.000000 0.000000
					CHANNELS 3 Zrotation Yrotation Xrotation
					JOINT Neck1
					{
						OFFSET 0.000000 1.600000 0.340000
						CHANNELS 3 Zrotation Yrotation Xrotation
						JOINT Head
						{
							OFFSET 0.000000 1.667000 -0.240000
							CHANNELS 3 Zrotation Yrotation Xrotation
							End Site
							{
								OFFSET 0.000000 0.000000 0.000000
							}
						}
					}
				}
				JOINT LeftShoulder
				{
					OFFSET 0.000000 0.000000 0.000000
					CHANNELS 3 Zrotation Yrotation Xrotation
					JOINT LeftArm
					{
						OFFSET 2.700000 1.550000 -0.730000
						CHANNELS 3 Zrotation Yrotation Xrotation
						JOINT LeftForeArm
						{
							OFFSET 5.450000 0.000000 0.000000
							CHANNELS 3 Zrotation Yrotation Xrotation
							JOINT LeftHand
							{
								OFFSET 3.450000 0.000000 0.000000
								CHANNELS 3 Zrotation Yrotation Xrotation
								JOINT LeftHandIndex1
								{
									OFFSET 0.750000 0.000000 0.000000
									CHANNELS 3 Zrotation Yrotation Xrotation
									End Site
									{
										OFFSET 0.000000 0.000000 0.000000
									}
								}
							}
						}
					}
				}
				JOINT RightShoulder
				{
					OFFSET 0.000000 0.000000 0.000000
					CHANNELS 3 Zrotation Yrotation Xrotation
					JOINT RightArm
					{
						OFFSET -2.700000 1.550000 -0.730000
						CHANNELS 3 Zrotation Yrotation Xrotation
						JOINT RightForeArm
						{
							OFFSET -5.450000 0.000000 0.000000
							CHANNELS 3 Zrotation Yrotation Xrotation
							JOINT RightHand
							{
								OFFSET -3.450000 0.000000 0.000000
								CHANNELS 3 Zrotation Yrotation Xrotation
								JOINT RightHandIndex1
								{
									OFFSET -0.750000 0.000000 0.000000
									CHANNELS 3 Zrotation Yrotation Xrotation
									End Site
									{
										OFFSET 0.000000 0.000000 0.000000
									}
								}
							}
						}
					}
				}
			}
		}
	}
}
MOTION
Frames: 13
Frame Time: 0.016667
1.021510 17.635010 -2.076570 -1.128705 -13.153696 13.655482 -15.096520 14.593346 3.703606 1.967291 -1.201433 -14.743413 -2.116095 3.019142 -1.604014 0.352074 3.079647 4.050012 -0.556460 -0.337820 -1.025540 18.037720 -9.973348 3.646651 1.879295 3.588425 -21.423992 -2.957268 -0.929595 1.035454 0.671506 -2.324145 3.923267 -0.119330 1.400500 0.117180 -3.077047 -4.736298 -7.921860 21.160055 -10.248013 15.172711 -7.697668 -5.170623 -26.927334 4.597284 -8.285597 -24.715963 -17.618683 10.493905 25.023865 7.879080 2.768670 28.232650 47.293957 25.757686 4.939067 -19.827444 -26.237284 -2.767456 144.523539 29.378757 83.038497 -5.565273 3.261840 -0.816490 0.893780 -0.798210 0.478180 -47.927328 -24.303421 4.055270 -8.823573 -6.081482 1.243704 -138.809960 -30.306494 56.997579 4.446961 -2.777767 -0.196760 0.131730 0.147810 0.649360 
1.017070 17.592300 -2.036710 -1.405795 -12.842799 15.903622 -15.228518 14.653292 3.844400 4.075091 -1.533845 -16.978401 -4.987603 3.395408 -1.520183 0.470931 3.305456 4.013262 -0.733350 -0.497220 -1.239620 17.911830 -9.616631 3.571347 -0.592295 4.025360 -23.245412 0.086892 -1.064822 0.977953 0.769499 -2.244009 4.044285 -0.231840 1.566140 0.107120 -2.762856 -5.735461 -8.073234 21.873798 -9.956099 12.560731 -4.361513 -4.706192 -28.879630 3.650025 -8.523848 -23.560604 -18.870231 12.655462 23.819548 8.697630 4.033730 31.316590 45.378795 23.249165 4.568909 -21.218622 -16.071506 -4.153411 146.165624 24.495603 79.070374 -5.589417 3.282810 -0.872000 0.976160 -0.877360 0.513500 -44.368244 -18.686270 5.700778 -12.113323 -9.426581 0.653996 -136.118082 -33.483813 57.090181 4.389653 -2.843945 -0.229280 0.179980 0.240210 0.718530 
0.984820 17.555930 -2.027230 -2.938012 -21.563738 16.558080 -15.228177 14.650090 3.802413 6.698125 -1.558680 -15.446435 -6.925537 3.902643 -0.215500 0.323673 3.556367 3.789017 -0.488130 -0.274450 -0.901410 17.924877 -9.414096 3.573191 -2.188253 4.397386 -24.583725 5.062598 -1.632857 1.975023 0.591152 -2.053668 4.005200 -0.112370 1.251770 0.034130 -2.687532 -5.981606 -8.122794 23.228777 -9.738655 12.002732 -6.852784 -3.043667 -31.531710 3.036857 -8.748209 -19.271315 -19.665889 17.304749 26.830968 11.510590 8.018630 26.440370 32.636117 15.705232 2.776675 -4.759115 -2.138787 -5.096144 146.754064 23.178432 75.652393 -5.004139 3.637512 -0.531750 0.746070 -0.630490 0.440420 -32.543187 -6.818611 5.182843 -22.155402 -15.279017 -0.173105 -133.535390 -30.818799 60.848458 3.934825 -2.217952 -0.264970 0.229590 0.139790 0.527020 
0.957690 17.534430 -2.012570 -2.734528 -25.000954 16.634831 -15.167745 14.545582 3.791104 6.422537 -1.607289 -14.822138 -8.402927 4.207514 0.527725 0.393443 3.616228 3.752829 -0.478850 -0.262320 -0.892430 17.982363 -9.504969 3.550355 -3.220186 4.232989 -25.746678 7.162996 -2.164990 3.943573 0.565351 -2.099944 3.960234 -0.132050 1.224140 0.021490 -2.829203 -5.645054 -8.076851 23.218907 -10.199100 10.960378 -7.745367 -3.289876 -32.823594 2.249226 -9.045200 -17.870878 -20.001929 19.263823 27.315420 13.856620 8.302550 27.847500 27.413703 11.891722 3.492133 1.231923 4.250916 -5.424581 144.723255 21.500945 68.500539 -4.827746 3.808726 -0.513510 0.700620 -0.599690 0.444950 -26.699760 -3.710155 4.688840 -25.226821 -17.853999 0.945459 -130.472014 -27.646890 56.305490 3.803407 -2.113108 -0.245740 0.208760 0.117140 0.535550 
0.962390 17.498090 -2.013300 -3.833537 -28.793041 15.370221 -15.107837 14.601152 3.607605 7.175293 -1.302436 -12.521113 -6.951958 4.289985 1.631597 0.211243 3.717201 3.669934 -0.343910 -0.162620 -0.697160 18.049439 -9.659859 3.451992 -3.463758 3.981191 -24.978040 6.754016 -2.383098 5.010149 0.464261 -2.084298 3.893317 -0.045180 1.100630 0.022420 -2.990781 -5.427720 -7.831814 25.342467 -11.019573 11.404711 -10.032292 -3.766413 -31.754682 1.605369 -9.494589 -16.126254 -21.149374 21.461577 28.812695 13.980100 10.833160 23.908480 22.621007 9.352361 3.114667 6.413419 8.192155 -5.290337 143.997014 19.768697 63.929952 -4.681854 3.771069 -0.335130 0.627720 -0.498060 0.389980 -21.852568 -0.853674 4.317998 -26.932182 -15.130563 0.498724 -131.822946 -26.753161 58.315386 3.548989 -1.987635 -0.285980 0.257790 0.104550 0.412820 
0.931180 17.484210 -2.034200 -4.912987 -35.621768 15.572278 -15.083607 14.529877 3.537214 7.435185 -1.175720 -10.854869 -7.238929 4.492549 2.212294 0.059900 3.886610 3.556490 -0.274860 -0.142700 -0.504280 18.094395 -9.714449 3.455967 -3.040991 4.320678 -25.816101 6.110661 -2.455764 6.191800 0.402314 -1.934682 3.849321 -0.004480 0.968890 0.010990 -3.134044 -5.157930 -7.701710 25.482506 -11.182472 12.136362 -11.390018 -4.001387 -31.075330 1.854924 -9.740951 -15.273036 -22.005087 23.806845 29.015337 13.841510 14.411560 20.505810 18.160027 5.564556 3.159389 11.672695 13.217866 -5.696666 142.363372 19.862295 61.526643 -4.555548 3.681073 -0.154870 0.549420 -0.404060 0.291560 -18.078937 2.719673 4.772002 -25.739056 -14.485502 -1.066145 -135.046840 -22.926842 54.401666 3.356117 -2.078244 -0.348320 0.289260 0.118080 0.272140 
0.947190 17.491690 -2.054020 -5.532270 -37.373261 14.217232 -15.008923 14.431885 3.412912 8.014144 -1.009233 -9.396387 -7.011846 4.673148 3.174512 -0.028964 3.968320 3.487343 -0.175120 -0.071580 -0.348670 18.180064 -9.936691 3.353754 -2.974206 4.128835 -25.206607 5.429725 -2.690301 7.941126 0.322050 -1.941128 3.782103 0.045730 0.849810 -0.004390 -3.380420 -4.623242 -7.483124 27.146728 -12.567303 13.365559 -14.219219 -4.930952 -29.967509 1.470819 -10.165024 -14.679876 -23.412701 24.643224 29.126569 14.083680 15.489170 16.813910 16.061091 3.215628 3.127337 16.691610 14.561609 -5.533655 142.463386 20.836130 63.061513 -4.454357 3.571984 -0.024050 0.457320 -0.317000 0.249130 -15.848363 4.594129 4.755482 -26.842726 -15.305126 -1.348233 -135.906254 -19.200720 48.507062 3.263598 -2.067329 -0.367930 0.310890 0.086290 0.191070 
0.959160 17.476580 -2.074000 -5.984769 -38.869265 13.443515 -14.963190 14.448164 3.290937 8.308798 -0.911992 -8.641319 -5.597997 4.621351 4.279996 -0.061789 3.903328 3.490881 -0.136500 -0.024490 -0.313910 18.223398 -10.112119 3.294641 -2.855818 4.096448 -25.450148 3.668993 -2.681026 9.682995 0.303404 -1.915088 3.792290 0.062650 0.802970 -0.003990 -3.506802 -4.331918 -7.375761 27.180505 -12.547730 14.118807 -14.891500 -5.278952 -28.211501 1.818846 -10.554727 -14.260479 -24.482861 24.796457 29.144327 13.257420 16.042090 15.676400 13.538010 1.625542 3.073436 18.060871 17.309407 -5.879501 142.127775 20.785001 61.791174 -4.376158 3.581238 0.012830 0.432540 -0.272310 0.254070 -14.348676 6.571324 4.973990 -28.069728 -16.174625 -1.756478 -137.256813 -17.753154 47.027657 3.191280 -2.063210 -0.355720 0.314900 0.063090 0.177880 
0.970890 17.480510 -2.076690 -5.678852 -39.115721 12.576149 -14.935960 14.540131 3.240821 7.749213 -0.861204 -8.419130 -4.960336 4.679776 5.610985 -0.096553 3.891940 3.519224 -0.147820 -0.036390 -0.294260 18.228986 -10.217393 3.287074 -3.116755 4.106286 -25.948526 3.205923 -2.831521 11.475722 0.305259 -1.959194 3.784183 0.067690 0.823030 -0.019270 -3.504672 -4.268371 -7.324523 26.612284 -13.033361 15.628210 -14.763015 -5.449103 -28.209144 1.609632 -10.202275 -14.548203 -23.406272 25.101833 29.102257 12.467370 17.149240 14.669200 15.745798 2.653027 3.030082 17.473555 16.312986 -5.928229 141.649478 20.242011 59.737588 -4.414351 3.518808 0.028520 0.446540 -0.272600 0.254500 -16.137787 5.366573 5.036331 -25.336906 -12.522441 -2.663548 -136.927387 -18.586409 46.639575 3.201855 -2.110657 -0.391780 0.357450 0.058130 0.165950 
0.984740 17.458300 -2.102230 -5.046156 -39.905852 9.956608 -14.868617 14.494035 3.205927 7.538047 -0.772313 -6.834335 -6.195811 5.277398 8.025667 -0.008913 4.066745 3.406798 -0.027240 0.129130 -0.238210 18.274358 -10.448676 3.221692 -3.654645 3.652862 -25.171966 4.088155 -3.282602 13.226419 0.216097 -2.174270 3.669612 0.131880 0.723060 0.026300 -3.640829 -3.827257 -7.294376 24.289549 -12.726809 18.389469 -13.825584 -5.607394 -26.176907 1.096985 -9.906631 -14.569525 -22.972834 24.373333 30.199674 12.087480 16.569850 11.853600 17.719742 3.302044 3.334978 14.399043 12.825867 -6.225872 139.554752 20.614463 57.400355 -4.400179 3.568762 0.016840 0.395860 -0.186660 0.285020 -17.364322 4.104596 4.537543 -24.450054 -10.199806 -3.156787 -138.258931 -18.942814 47.642474 3.226431 -2.201839 -0.291550 0.299950 -0.014040 0.190570 
1.018430 17.450460 -2.120860 -5.898652 -39.962938 7.466664 -14.814158 14.527664 3.126768 8.649506 -0.675687 -5.072743 -6.268557 5.763414 10.251043 0.040978 4.314532 3.273841 0.047520 0.239380 -0.194900 18.309651 -10.654377 3.141583 -3.008635 3.424805 -23.208745 3.557520 -3.497729 15.069729 0.141165 -2.386651 3.580252 0.175810 0.653520 0.068090 -3.728784 -3.552339 -7.233696 23.669699 -13.269493 22.202383 -13.930981 -5.477747 -24.285889 0.945974 -9.160127 -14.170809 -21.080904 24.056764 31.400316 10.917070 17.089870 8.754070 19.470037 4.658399 3.012307 15.073252 9.426866 -5.204210 137.513114 18.398558 50.412374 -4.450509 3.496532 0.008910 0.377710 -0.128340 0.285230 -19.171872 2.053251 3.688673 -23.688451 -6.029803 -3.595714 -141.998999 -17.849915 47.690785 3.220598 -2.256355 -0.221900 0.268330 -0.037780 0.192530 
1.043240 17.431620 -2.119180 -6.906815 -39.759116 7.729237 -14.862172 14.770490 3.076404 9.240983 -0.687913 -6.156890 -5.522216 5.936345 12.265207 0.099728 4.374335 3.253220 0.024140 0.212840 -0.262190 18.245376 -10.521142 3.225041 -1.997472 4.275430 -23.947327 2.417787 -3.331607 17.352467 0.177810 -2.470932 3.571175 0.149430 0.716490 0.107470 -3.489456 -4.042836 -7.326133 22.635202 -12.705246 24.001721 -11.978056 -4.209093 -23.693153 1.271953 -8.020778 -14.623445 -17.383873 24.315325 31.737759 11.984870 16.817780 11.647770 23.222546 8.543930 2.746385 13.056950 11.145783 -3.392404 134.280376 12.944012 37.562224 -4.575265 3.588949 -0.070430 0.430800 -0.178340 0.319550 -23.659989 -0.628017 3.540547 -21.082711 0.886927 -3.910199 -140.321073 -18.298554 44.321476 3.269392 -2.327251 -0.187680 0.216770 -0.033190 0.237300 
1.050420 17.397590 -2.053400 -5.615308 -35.445210 9.473860 -14.906004 15.139747 3.088921 6.714601 -0.944461 -10.046702 -1.556959 4.738872 12.845901 0.091901 3.682274 3.498075 -0.036100 0.112780 -0.298260 18.150710 -10.371021 3.403400 -2.472995 5.114137 -27.148766 0.052478 -2.710422 18.983915 0.258325 -2.319478 3.651499 0.053890 0.704420 0.101850 -3.162756 -4.739445 -7.573673 21.781090 -10.196662 21.457949 -12.275640 -1.980122 -23.281174 2.861015 -4.953702 -16.394408 -10.533940 20.173034 34.928030 10.840870 13.328750 16.088010 29.720361 19.657852 0.576530 12.127512 12.631978 3.290523 131.179716 -6.229118 6.262886 -4.927774 3.266105 -0.133820 0.427800 -0.206750 0.335070 -33.281639 -8.738154 3.328349 -11.429576 9.124603 -3.144626 -135.014586 -18.332375 34.287385 3.567420 -2.491622 -0.148830 0.139280 -0.062650 0.273480 
